# xmcd
#
# Track frame offsets: 
#        150
#        19825
#        36142
#        48062
#        61417
#        81885
#        93727
#        126030
#        138602
#        158405
#        168647
#        185165
#        198697
#        210377
#        220092
#        234532
#
# Disc length: 3323 seconds
#
# Revision: 0
# Processed by: cddbd v1.5.1PL0 Copyright (c) Steve Scherf et al.
# Submitted via: ExactAudioCopy v0.95a4
#
DISCID=e20cf910
DTITLE=Various Artist - Chess - Legendary Masters Series
DYEAR=1997
DGENRE=Blues
TTITLE0=Taylor, Koko - Insane Asylum
TTITLE1=Hooker, John Lee - Deep Blue sea
TTITLE2=Diddley, Bo - I'm High Again
TTITLE3=Desanto, Sugar Pie and James, Etta - Do I Make Myself Clear
TTITLE4=Waters, Muddy - Rock Me
TTITLE5=Bass, Fontella and McClure, Bobby - You're Gonna Miss Me
TTITLE6=Guy, Buddy - Stone Crazy
TTITLE7=Wolf, Howlin' - Sponful
TTITLE8=The Dells - I Miss You
TTITLE9=Williamson, Sonny Boy - Temperature 110
TTITLE10=Lewis, Ramsey - Blues For The Night Owl
TTITLE11=Milton, Little - Let's Get Together
TTITLE12=Whiterspoon, Jimmy - T.W.A.
TTITLE13=Dixon, Willie - 29 Ways
TTITLE14=Walter, Little - That's It
TTITLE15=Berry, Chuck - Reelin' and Rockin'
EXTD=
EXTT0=
EXTT1=
EXTT2=
EXTT3=
EXTT4=
EXTT5=
EXTT6=
EXTT7=
EXTT8=
EXTT9=
EXTT10=
EXTT11=
EXTT12=
EXTT13=
EXTT14=
EXTT15=
PLAYORDER=
